<svg id="visual" viewBox="0 0 1920 1080" width="1920" height="1080" xmlns="http://www.w3.org/2000/svg" xmlns:xlink="http://www.w3.org/1999/xlink" version="1.1"><rect x="0" y="0" width="1920" height="1080" fill="#20232A"></rect><path d="M0 735L45.7 748.3C91.3 761.7 182.7 788.3 274.2 791.7C365.7 795 457.3 775 548.8 768.8C640.3 762.7 731.7 770.3 823 782.8C914.3 795.3 1005.7 812.7 1097 809.2C1188.3 805.7 1279.7 781.3 1371.2 767.5C1462.7 753.7 1554.3 750.3 1645.8 743C1737.3 735.7 1828.7 724.3 1874.3 718.7L1920 713L1920 1081L1874.3 1081C1828.7 1081 1737.3 1081 1645.8 1081C1554.3 1081 1462.7 1081 1371.2 1081C1279.7 1081 1188.3 1081 1097 1081C1005.7 1081 914.3 1081 823 1081C731.7 1081 640.3 1081 548.8 1081C457.3 1081 365.7 1081 274.2 1081C182.7 1081 91.3 1081 45.7 1081L0 1081Z" fill="#0099ff"></path><path d="M0 790L45.7 803C91.3 816 182.7 842 274.2 842C365.7 842 457.3 816 548.8 810C640.3 804 731.7 818 823 820C914.3 822 1005.7 812 1097 832.3C1188.3 852.7 1279.7 903.3 1371.2 919.8C1462.7 936.3 1554.3 918.7 1645.8 894.7C1737.3 870.7 1828.7 840.3 1874.3 825.2L1920 810L1920 1081L1874.3 1081C1828.7 1081 1737.3 1081 1645.8 1081C1554.3 1081 1462.7 1081 1371.2 1081C1279.7 1081 1188.3 1081 1097 1081C1005.7 1081 914.3 1081 823 1081C731.7 1081 640.3 1081 548.8 1081C457.3 1081 365.7 1081 274.2 1081C182.7 1081 91.3 1081 45.7 1081L0 1081Z" fill="#00b1ff"></path><path d="M0 912L45.7 912.5C91.3 913 182.7 914 274.2 927.5C365.7 941 457.3 967 548.8 975.3C640.3 983.7 731.7 974.3 823 959.7C914.3 945 1005.7 925 1097 930.5C1188.3 936 1279.7 967 1371.2 962.2C1462.7 957.3 1554.3 916.7 1645.8 912C1737.3 907.3 1828.7 938.7 1874.3 954.3L1920 970L1920 1081L1874.3 1081C1828.7 1081 1737.3 1081 1645.8 1081C1554.3 1081 1462.7 1081 1371.2 1081C1279.7 1081 1188.3 1081 1097 1081C1005.7 1081 914.3 1081 823 1081C731.7 1081 640.3 1081 548.8 1081C457.3 1081 365.7 1081 274.2 1081C182.7 1081 91.3 1081 45.7 1081L0 1081Z" fill="#2cc6fe"></path><path d="M0 1033L45.7 1021.3C91.3 1009.7 182.7 986.3 274.2 981C365.7 975.7 457.3 988.3 548.8 996.3C640.3 1004.3 731.7 1007.7 823 999C914.3 990.3 1005.7 969.7 1097 962.3C1188.3 955 1279.7 961 1371.2 965.5C1462.7 970 1554.3 973 1645.8 972.5C1737.3 972 1828.7 968 1874.3 966L1920 964L1920 1081L1874.3 1081C1828.7 1081 1737.3 1081 1645.8 1081C1554.3 1081 1462.7 1081 1371.2 1081C1279.7 1081 1188.3 1081 1097 1081C1005.7 1081 914.3 1081 823 1081C731.7 1081 640.3 1081 548.8 1081C457.3 1081 365.7 1081 274.2 1081C182.7 1081 91.3 1081 45.7 1081L0 1081Z" fill="#61dafb"></path></svg>