<svg width="1920" height="441" viewBox="0 0 1920 441" fill="none" xmlns="http://www.w3.org/2000/svg">
<path d="M0 16.5L45.7 26.475C91.3 36.525 182.7 56.475 274.2 59.025C365.7 61.5 457.3 46.5 548.8 41.85C640.3 37.275 731.7 42.975 823 52.35C914.3 61.725 1005.7 74.775 1097 72.15C1188.3 69.525 1279.7 51.225 1371.2 40.875C1462.7 30.525 1554.3 27.975 1645.8 22.5C1737.3 17.025 1828.7 8.47501 1874.3 4.27501L1920 0V276H1874.3C1828.7 276 1737.3 276 1645.8 276C1554.3 276 1462.7 276 1371.2 276C1279.7 276 1188.3 276 1097 276C1005.7 276 914.3 276 823 276C731.7 276 640.3 276 548.8 276C457.3 276 365.7 276 274.2 276C182.7 276 91.3 276 45.7 276H0V16.5Z" fill="#0099FF"/>
<path d="M1920 429.462L1874.3 422.487C1828.7 415.459 1737.3 401.508 1645.8 399.725C1554.3 397.995 1462.7 408.484 1371.2 411.735C1279.7 414.935 1188.3 410.949 1097 404.393C1005.7 397.837 914.3 388.712 823 390.547C731.7 392.383 640.3 405.18 548.8 412.417C457.3 419.655 365.7 421.438 274.2 425.266C182.7 429.095 91.2999 435.074 45.7 438.011L0 441V248H45.7C91.2999 248 182.7 248 274.2 248C365.7 248 457.3 248 548.8 248C640.3 248 731.7 248 823 248C914.3 248 1005.7 248 1097 248C1188.3 248 1279.7 248 1371.2 248C1462.7 248 1554.3 248 1645.8 248C1737.3 248 1828.7 248 1874.3 248H1920V429.462Z" fill="#0099FF"/>
<path d="M0 57.75L45.7 67.5C91.3 77.25 182.7 96.75 274.2 96.75C365.7 96.75 457.3 77.25 548.8 72.75C640.3 68.25 731.7 78.75 823 80.25C914.3 81.75 1005.7 74.25 1097 89.475C1188.3 104.775 1279.7 142.725 1371.2 155.1C1462.7 167.475 1554.3 154.275 1645.8 136.275C1737.3 118.275 1828.7 95.475 1874.3 84.15L1920 72.75V276H1874.3C1828.7 276 1737.3 276 1645.8 276C1554.3 276 1462.7 276 1371.2 276C1279.7 276 1188.3 276 1097 276C1005.7 276 914.3 276 823 276C731.7 276 640.3 276 548.8 276C457.3 276 365.7 276 274.2 276C182.7 276 91.3 276 45.7 276H0V57.75Z" fill="#00B1FF"/>
<path d="M1920 400.617L1874.3 393.799C1828.7 386.981 1737.3 373.345 1645.8 373.345C1554.3 373.345 1462.7 386.981 1371.2 390.128C1279.7 393.274 1188.3 385.932 1097 384.883C1005.7 383.834 914.3 389.079 823 378.432C731.7 367.733 640.3 341.196 548.8 332.542C457.3 323.889 365.7 333.119 274.2 345.706C182.7 358.293 91.2999 374.237 45.7 382.156L0 390.128V248H45.7C91.2999 248 182.7 248 274.2 248C365.7 248 457.3 248 548.8 248C640.3 248 731.7 248 823 248C914.3 248 1005.7 248 1097 248C1188.3 248 1279.7 248 1371.2 248C1462.7 248 1554.3 248 1645.8 248C1737.3 248 1828.7 248 1874.3 248H1920V400.617Z" fill="#00B1FF"/>
<path d="M0 149.25L45.7 149.625C91.3 150 182.7 150.75 274.2 160.875C365.7 171 457.3 190.5 548.8 196.725C640.3 203.025 731.7 195.975 823 185.025C914.3 174 1005.7 159 1097 163.125C1188.3 167.25 1279.7 190.5 1371.2 186.9C1462.7 183.225 1554.3 152.775 1645.8 149.25C1737.3 145.725 1828.7 169.275 1874.3 180.975L1920 192.75V276H1874.3C1828.7 276 1737.3 276 1645.8 276C1554.3 276 1462.7 276 1371.2 276C1279.7 276 1188.3 276 1097 276C1005.7 276 914.3 276 823 276C731.7 276 640.3 276 548.8 276C457.3 276 365.7 276 274.2 276C182.7 276 91.3 276 45.7 276H0V149.25Z" fill="#2CC6FE"/>
<path d="M1920 336.633L1874.3 336.371C1828.7 336.109 1737.3 335.584 1645.8 328.504C1554.3 321.424 1462.7 307.788 1371.2 303.435C1279.7 299.03 1188.3 303.96 1097 311.617C1005.7 319.326 914.3 329.815 823 326.931C731.7 324.046 640.3 307.788 548.8 310.305C457.3 312.875 365.7 334.168 274.2 336.633C182.7 339.098 91.2999 322.63 45.7 314.449L0 306.215V248H45.7C91.2999 248 182.7 248 274.2 248C365.7 248 457.3 248 548.8 248C640.3 248 731.7 248 823 248C914.3 248 1005.7 248 1097 248C1188.3 248 1279.7 248 1371.2 248C1462.7 248 1554.3 248 1645.8 248C1737.3 248 1828.7 248 1874.3 248H1920V336.633Z" fill="#2CC6FE"/>
<path d="M0 240L45.7 231.225C91.3 222.525 182.7 204.975 274.2 201C365.7 197.025 457.3 206.475 548.8 212.475C640.3 218.475 731.7 221.025 823 214.5C914.3 207.975 1005.7 192.525 1097 186.975C1188.3 181.5 1279.7 186 1371.2 189.375C1462.7 192.75 1554.3 195 1645.8 194.625C1737.3 194.25 1828.7 191.25 1874.3 189.75L1920 188.25V276H1874.3C1828.7 276 1737.3 276 1645.8 276C1554.3 276 1462.7 276 1371.2 276C1279.7 276 1188.3 276 1097 276C1005.7 276 914.3 276 823 276C731.7 276 640.3 276 548.8 276C457.3 276 365.7 276 274.2 276C182.7 276 91.3 276 45.7 276H0V240Z" fill="#61DAFB"/>
<path d="M1920 273.174L1874.3 279.31C1828.7 285.394 1737.3 297.666 1645.8 300.446C1554.3 303.225 1462.7 296.617 1371.2 292.421C1279.7 288.226 1188.3 286.443 1097 291.005C1005.7 295.568 914.3 306.372 823 310.253C731.7 314.082 640.3 310.935 548.8 308.575C457.3 306.215 365.7 304.641 274.2 304.904C182.7 305.166 91.2999 307.264 45.7 308.312L0 309.361V248H45.7C91.2999 248 182.7 248 274.2 248C365.7 248 457.3 248 548.8 248C640.3 248 731.7 248 823 248C914.3 248 1005.7 248 1097 248C1188.3 248 1279.7 248 1371.2 248C1462.7 248 1554.3 248 1645.8 248C1737.3 248 1828.7 248 1874.3 248H1920V273.174Z" fill="#61DAFB"/>
</svg>
