<svg width="171" height="177" viewBox="0 0 171 177" fill="none" xmlns="http://www.w3.org/2000/svg">
<path d="M73.6347 99.953C79.7405 104.9 89.2589 103.502 94.8946 96.8317C100.53 90.161 100.149 80.743 94.0436 75.7962C87.9379 70.8493 78.4195 72.2467 72.7837 78.9174C67.148 85.5882 67.529 95.0061 73.6347 99.953Z" fill="url(#paint0_linear)"/>
<path d="M71.9991 97.9157C78.1049 102.863 87.6233 101.465 93.259 94.7944C98.8948 88.1237 98.5138 78.7058 92.408 73.7589C86.3022 68.812 76.7839 70.2095 71.1481 76.8802C65.5123 83.5509 65.8933 92.9688 71.9991 97.9157Z" fill="url(#paint1_linear)"/>
<path fill-rule="evenodd" clip-rule="evenodd" d="M106.019 63.8124C120.862 75.8385 132.685 89.3374 139.778 101.672C148.325 116.533 149.993 129.915 144.529 136.381C138.836 143.12 124.263 144.094 106.697 138.065C93.4167 133.506 78.4099 124.585 64.3196 113.169C49.8733 101.465 37.7174 88.5773 30.6765 76.4049C21.7696 61.0034 20.4253 46.9681 26.0103 40.3575C31.4295 33.9431 44.7705 32.8145 61.096 38.1166C74.89 42.5966 91.0281 51.6671 106.017 63.8107L106.019 63.8124Z" stroke="url(#paint2_linear)" stroke-width="15"/>
<path fill-rule="evenodd" clip-rule="evenodd" d="M76.0172 60.3085C95.3013 52.2685 114.078 47.4563 129.036 46.2903C147.058 44.8854 159.712 48.8696 162.11 56.2542C164.61 63.9501 156.818 77.0363 141.148 89.8834C129.302 99.5983 112.626 109.04 94.3208 116.672C75.5524 124.498 57.1114 129.848 42.3286 131.032C23.6218 132.532 10.5894 128.001 8.138 120.451C5.75714 113.128 12.6848 101.05 26.9862 88.9876C39.0698 78.7955 56.5447 68.427 76.015 60.3063L76.0172 60.3085Z" stroke="url(#paint3_linear)" stroke-width="15"/>
<path fill-rule="evenodd" clip-rule="evenodd" d="M55.1739 85.016C59.5925 64.9587 66.5316 46.6504 74.3788 33.1484C83.836 16.8822 94.8105 7.47865 102.67 8.38941C110.861 9.33803 117.652 21.4377 119.564 40.3027C121.01 54.5658 119.36 72.922 115.164 91.9647C110.862 111.488 104.595 129.722 96.8658 143.078C87.0848 159.979 75.4099 169.489 67.3751 168.558C59.5788 167.655 53.1552 156.719 51.1158 139.365C49.3923 124.702 50.7107 105.272 55.1739 85.016Z" stroke="url(#paint4_linear)" stroke-width="15"/>
<path fill-rule="evenodd" clip-rule="evenodd" d="M102.951 61.2794C117.795 73.3055 129.618 86.8045 136.711 99.1386C145.257 114 146.926 127.382 141.462 133.848C135.769 140.587 121.196 141.561 103.63 135.532C90.3495 130.973 75.3427 122.052 61.2524 110.636C46.8061 98.9316 34.6502 86.0443 27.6093 73.8719C18.7024 58.4704 17.3581 44.4352 22.9431 37.8245C28.3623 31.4101 41.7033 30.2815 58.0288 35.5836C71.8228 40.0636 87.9609 49.1342 102.949 61.2778L102.951 61.2794Z" stroke="url(#paint5_linear)" stroke-width="9"/>
<path fill-rule="evenodd" clip-rule="evenodd" d="M72.95 57.7755C92.2341 49.7355 111.011 44.9233 125.969 43.7573C143.99 42.3524 156.645 46.3367 159.043 53.7212C161.543 61.4172 153.751 74.5033 138.081 87.3505C126.235 97.0654 109.559 106.507 91.2536 114.139C72.4852 121.965 54.0442 127.315 39.2614 128.499C20.5546 129.999 7.52221 125.468 5.0708 117.918C2.68994 110.595 9.61765 98.5174 23.919 86.4546C36.0026 76.2625 53.4775 65.8941 72.9478 57.7733L72.95 57.7755Z" stroke="url(#paint6_linear)" stroke-width="9"/>
<path fill-rule="evenodd" clip-rule="evenodd" d="M52.1067 82.483C56.5253 62.4258 63.4644 44.1174 71.3116 30.6155C80.7688 14.3493 91.7433 4.94571 99.6031 5.85647C107.794 6.80509 114.585 18.9048 116.497 37.7698C117.943 52.0329 116.293 70.3891 112.096 89.4317C107.794 108.955 101.528 127.189 93.7986 140.545C84.0176 157.446 72.3427 166.956 64.3079 166.025C56.5116 165.122 50.088 154.186 48.0486 136.832C46.3251 122.169 47.6435 102.739 52.1067 82.483Z" stroke="url(#paint7_linear)" stroke-width="9"/>
<defs>
<linearGradient id="paint0_linear" x1="94.0436" y1="75.7962" x2="74.1401" y2="100.362" gradientUnits="userSpaceOnUse">
<stop stop-color="#00B1FF"/>
<stop offset="0.5" stop-color="#28AFC8"/>
<stop offset="1" stop-color="#0099FF"/>
</linearGradient>
<linearGradient id="paint1_linear" x1="92.408" y1="73.7589" x2="72.5045" y2="98.3251" gradientUnits="userSpaceOnUse">
<stop stop-color="#00D8FF"/>
<stop offset="1" stop-color="#25D0EF"/>
</linearGradient>
<linearGradient id="paint2_linear" x1="133.536" y1="31.4022" x2="39.2581" y2="147.767" gradientUnits="userSpaceOnUse">
<stop stop-color="#00B1FF"/>
<stop offset="0.5" stop-color="#28AFC8"/>
<stop offset="1" stop-color="#0099FF"/>
</linearGradient>
<linearGradient id="paint3_linear" x1="133.536" y1="31.4022" x2="39.2581" y2="147.767" gradientUnits="userSpaceOnUse">
<stop stop-color="#00B1FF"/>
<stop offset="0.5" stop-color="#28AFC8"/>
<stop offset="1" stop-color="#0099FF"/>
</linearGradient>
<linearGradient id="paint4_linear" x1="133.536" y1="31.4022" x2="39.2581" y2="147.767" gradientUnits="userSpaceOnUse">
<stop stop-color="#00B1FF"/>
<stop offset="0.5" stop-color="#28AFC8"/>
<stop offset="1" stop-color="#0099FF"/>
</linearGradient>
<linearGradient id="paint5_linear" x1="130.469" y1="28.8693" x2="36.1909" y2="145.234" gradientUnits="userSpaceOnUse">
<stop stop-color="#00D8FF"/>
<stop offset="1" stop-color="#25D0EF"/>
</linearGradient>
<linearGradient id="paint6_linear" x1="130.469" y1="28.8693" x2="36.1909" y2="145.234" gradientUnits="userSpaceOnUse">
<stop stop-color="#00D8FF"/>
<stop offset="1" stop-color="#25D0EF"/>
</linearGradient>
<linearGradient id="paint7_linear" x1="130.469" y1="28.8693" x2="36.1909" y2="145.234" gradientUnits="userSpaceOnUse">
<stop stop-color="#00D8FF"/>
<stop offset="1" stop-color="#25D0EF"/>
</linearGradient>
</defs>
</svg>
